HIERARCHY
ROOT Pelvis
{
	OFFSET 0.000000 0.000000 0.000000
	CHANNELS 6 Xposition Yposition Zposition Xrotation Yrotation Zrotation
	JOINT LeftUpLeg_virtual
	{
		OFFSET 0.000000 0.000000 0.000000
		CHANNELS 3 Xrotation Yrotation Zrotation
		JOINT LeftUpLeg
		{
			OFFSET 18.735201 -5.666702 -4.541200
			CHANNELS 3 Xrotation Yrotation Zrotation
			JOINT LeftLeg
			{
				OFFSET -0.021200 -31.938179 0.493100
				CHANNELS 3 Xrotation Yrotation Zrotation
				JOINT LeftFoot
				{
					OFFSET 0.021200 -31.938179 -4.336299
					CHANNELS 3 Xrotation Yrotation Zrotation
					JOINT LeftToeBase
					{
						OFFSET 0.943001 -26.722000 15.023500
						CHANNELS 3 Xrotation Yrotation Zrotation
						End Site
						{
							OFFSET 0 0 0
						}
					}
				}
			}
		}
	}
	JOINT RightUpLeg_virtual
	{
		OFFSET 0.000000 0.000000 0.000000
		CHANNELS 3 Xrotation Yrotation Zrotation
		JOINT RightUpLeg
		{
			OFFSET -18.735201 -5.666702 -4.541200
			CHANNELS 3 Xrotation Yrotation Zrotation
			JOINT RightLeg
			{
				OFFSET 0.018946 -31.938133 0.493100
				CHANNELS 3 Xrotation Yrotation Zrotation
				JOINT RightFoot
				{
					OFFSET -0.018946 -31.938126 -4.336299
					CHANNELS 3 Xrotation Yrotation Zrotation
					JOINT RightToeBase
					{
						OFFSET -0.943001 -26.722004 15.023500
						CHANNELS 3 Xrotation Yrotation Zrotation
						End Site
						{
							OFFSET 0 0 0
						}
					}
				}
			}
		}
	}
	JOINT Hips_virtual
	{
		OFFSET 0.000000 0.000000 0.000000
		CHANNELS 3 Xrotation Yrotation Zrotation
		JOINT Hips
		{
			OFFSET -0.000000 -0.000000 -0.000000
			CHANNELS 3 Xrotation Yrotation Zrotation
			JOINT Spine
			{
				OFFSET 0.000000 10.199997 -0.299500
				CHANNELS 3 Xrotation Yrotation Zrotation
				JOINT Spine1
				{
					OFFSET 0.000000 11.900002 -1.516600
					CHANNELS 3 Xrotation Yrotation Zrotation
					JOINT Spine2
					{
						OFFSET 0.000000 13.600006 -2.842500
						CHANNELS 3 Xrotation Yrotation Zrotation
						JOINT Neck_virtual
						{
							OFFSET 0.000000 0.000000 0.000000
							CHANNELS 3 Xrotation Yrotation Zrotation
							JOINT Neck
							{
								OFFSET 0.000000 9.624100 -2.890100
								CHANNELS 3 Xrotation Yrotation Zrotation
								JOINT Head
								{
									OFFSET 0.000000 14.068802 -1.351900
									CHANNELS 3 Xrotation Yrotation Zrotation
									End Site
									{
										OFFSET 0 0 0
									}
								}
							}
						}
						JOINT LeftShoulder_virtual
						{
							OFFSET 0.000000 0.000000 0.000000
							CHANNELS 3 Xrotation Yrotation Zrotation
							JOINT LeftShoulder
							{
								OFFSET 15.263000 10.923401 -0.547700
								CHANNELS 3 Xrotation Yrotation Zrotation
								JOINT LeftArm
								{
									OFFSET 25.438599 -2.830597 -13.032500
									CHANNELS 3 Xrotation Yrotation Zrotation
									JOINT LeftForeArm
									{
										OFFSET 29.960503 0.000000 0.000000
										CHANNELS 3 Xrotation Yrotation Zrotation
										JOINT LeftHand
										{
											OFFSET 27.849251 0.000000 0.000000
											CHANNELS 3 Xrotation Yrotation Zrotation
											End Site
											{
												OFFSET 0 0 0
											}
										}
									}
								}
							}
						}
						JOINT RightShoulder_virtual
						{
							OFFSET 0.000000 0.000000 0.000000
							CHANNELS 3 Xrotation Yrotation Zrotation
							JOINT RightShoulder
							{
								OFFSET -15.263000 10.923401 -0.547700
								CHANNELS 3 Xrotation Yrotation Zrotation
								JOINT RightArm
								{
									OFFSET -25.438599 -2.830597 -13.032500
									CHANNELS 3 Xrotation Yrotation Zrotation
									JOINT RightForeArm
									{
										OFFSET -29.960503 0.000000 0.000000
										CHANNELS 3 Xrotation Yrotation Zrotation
										JOINT RightHand
										{
											OFFSET -27.849251 0.000000 0.000000
											CHANNELS 3 Xrotation Yrotation Zrotation
											End Site
											{
												OFFSET 0 0 0
											}
										}
									}
								}
							}
						}
					}
				}
			}
		}
	}
}
MOTION
Frames: 10
Frame Time: 0.03333333
-3.526491 78.410332 3.057365 0.000000 0.000000 0.000000 11.660461 -49.374427 11.268420 -69.006904 20.606623 47.788153 51.256547 -22.124332 3.397176 2.960996 1.488329 -15.125418 0.000000 0.000000 0.000000 11.660461 -49.374427 11.268420 -33.116210 3.851243 -30.939838 58.819274 4.953835 -6.674888 -30.772652 -6.442853 30.151966 0.000000 0.000000 0.000000 11.660461 -49.374427 11.268420 0.000000 -0.000002 0.000000 10.972580 2.720467 -2.032878 6.100711 5.566507 -4.284673 0.000000 0.000000 0.000000 -5.786924 6.328169 -3.046189 0.458789 1.873390 -0.022554 0.000000 0.000000 0.000000 -5.786924 6.328169 -3.046189 -1.875345 -16.181700 -2.870489 -10.644670 2.164704 -45.510595 -22.862385 -25.786271 -15.871726 0.000000 0.000000 0.000000 -5.786924 6.328169 -3.046189 -5.074599 24.343692 1.482627 6.642387 -34.733701 57.610487 -21.031978 44.833853 19.961656 0.000000 0.000000 0.000000 
-3.877827 77.650688 3.559978 0.000000 0.000000 0.000000 23.026625 -51.121968 21.226254 -71.612266 19.802071 46.996052 52.695323 -20.702881 3.590410 0.128954 5.502557 -17.377825 0.000000 0.000000 0.000000 23.026625 -51.121968 21.226254 -41.337364 7.974259 -30.286497 59.147034 4.954184 -6.744924 -29.548778 -5.653657 30.876031 0.000000 0.000000 0.000000 23.026625 -51.121968 21.226254 0.000000 -0.000003 0.000000 1.926469 3.130160 -0.627471 3.783558 5.915591 -3.917739 0.000000 0.000000 0.000000 -8.078003 6.563213 -2.613887 -1.061205 -0.849711 0.385017 0.000000 0.000000 0.000000 -8.078003 6.563213 -2.613887 -2.338701 -9.267081 0.477312 0.012358 1.464316 -49.562233 -21.267392 -30.655706 -14.789834 0.000000 0.000000 0.000000 -8.078003 6.563213 -2.613887 -5.306080 22.788511 3.827939 7.662526 -36.585676 53.035524 -27.334610 45.566501 26.031878 0.000000 0.000000 0.000000 
-4.784855 76.922295 4.936508 0.000000 0.000000 0.000000 30.280168 -47.662440 28.545589 -74.318305 21.093893 43.768364 52.344309 -20.646941 3.495432 -1.168883 7.074191 -17.739627 0.000000 0.000000 0.000000 30.280168 -47.662440 28.545589 -43.804523 10.553322 -32.182400 59.548171 3.870670 -6.776850 -31.142647 -8.150181 32.248386 0.000000 0.000000 0.000000 30.280168 -47.662440 28.545589 0.000000 -0.000001 0.000000 -3.508287 1.759520 0.661198 3.307903 3.506669 -3.997016 0.000000 0.000000 0.000000 -8.328921 4.248534 -2.971354 -2.442943 -3.774120 2.210484 0.000000 0.000000 0.000000 -8.328921 4.248534 -2.971354 -3.066419 -7.807671 4.730873 10.311693 1.423226 -52.599444 -19.446785 -36.074177 -13.613603 0.000000 0.000000 0.000000 -8.328921 4.248534 -2.971354 -5.187631 18.961575 9.196353 7.063283 -38.893542 43.103934 -47.779386 56.035815 50.040561 0.000000 0.000000 0.000000 
-6.295031 76.570518 6.438457 0.000000 0.000000 0.000000 33.761266 -43.535728 32.477471 -75.026425 22.941767 40.498917 50.320111 -21.143318 3.273579 -1.718302 7.704963 -18.169615 0.000000 0.000000 0.000000 33.761266 -43.535728 32.477471 -43.164326 11.133342 -34.471555 59.369999 2.931517 -6.701046 -33.614868 -11.071909 32.851864 0.000000 0.000000 0.000000 33.761266 -43.535728 32.477471 0.000000 -0.000001 0.000001 0.436476 -1.028849 1.696498 6.128176 -1.531154 -3.628609 0.000000 0.000000 0.000000 -5.294944 -0.811234 -3.075680 -3.600681 -4.179366 2.746920 0.000000 0.000000 0.000000 -5.294944 -0.811234 -3.075680 -0.591743 -9.121286 1.921979 1.513775 16.251820 -51.344605 -13.857609 -28.954716 -10.616520 0.000000 0.000000 0.000000 -5.294944 -0.811234 -3.075680 -3.519762 14.337030 12.950350 -3.555359 -34.934874 30.547201 -76.330144 63.075130 82.817355 0.000000 0.000000 0.000000 
-9.222935 76.248375 7.764915 0.000000 0.000000 0.000000 35.046080 -41.603256 33.799075 -73.167732 23.375112 39.890101 48.686678 -22.307495 3.111787 -3.093799 8.652280 -20.037668 0.000000 0.000000 0.000000 35.046080 -41.603256 33.799075 -41.021635 9.427319 -34.929383 59.353046 2.472519 -6.780250 -37.352604 -12.572055 32.037303 0.000000 0.000000 0.000000 35.046080 -41.603256 33.799075 -0.000001 -0.000001 -0.000001 8.787890 -4.083896 2.885693 10.629016 -7.985797 -2.385282 0.000000 0.000000 0.000000 -0.790392 -7.362274 -2.055565 -3.396844 -2.593434 2.145687 0.000000 0.000000 0.000000 -0.790392 -7.362274 -2.055565 4.756250 -15.894788 -1.244015 -16.882206 38.629009 -37.688851 -8.098499 -17.855679 -7.600332 0.000000 0.000000 0.000000 -0.790392 -7.362274 -2.055565 -1.565902 10.918288 17.212294 -15.854093 -21.529771 26.362348 -86.261615 67.025439 92.302808 0.000000 0.000000 0.000000 
-11.949741 75.942505 8.491737 0.000000 0.000000 0.000000 36.273963 -41.580535 33.936232 -71.669612 22.350064 41.605018 48.181596 -23.507986 3.080831 -4.636139 9.905328 -22.133235 0.000000 0.000000 0.000000 36.273963 -41.580535 33.936232 -39.622819 7.366800 -33.290096 58.878368 2.173629 -6.859568 -40.035256 -12.591462 30.803853 0.000000 0.000000 0.000000 36.273963 -41.580535 33.936232 0.000001 -0.000000 -0.000001 14.304334 -6.183041 3.782254 16.098160 -12.559838 -0.598842 0.000000 0.000000 0.000000 4.727401 -11.847428 -0.298009 -1.879057 -1.459582 1.261384 0.000000 0.000000 0.000000 4.727401 -11.847428 -0.298009 7.970249 -17.672040 -0.634206 -32.617408 42.585461 -23.741563 -3.428581 -12.196214 -4.806340 0.000000 0.000000 0.000000 4.727401 -11.847428 -0.298009 -0.179989 10.283488 20.191142 -23.570727 -4.571928 29.572257 -64.647303 68.981168 65.755665 0.000000 0.000000 0.000000 
-13.439458 75.491180 8.372398 0.000000 0.000000 0.000000 33.976701 -41.893167 33.040193 -69.126992 22.997027 42.072767 47.138868 -24.671490 2.945283 -4.506998 10.065873 -23.290149 0.000000 0.000000 0.000000 33.976701 -41.893167 33.040193 -37.758245 6.555030 -33.891679 61.458971 2.622969 -6.972027 -43.235330 -12.845595 29.745802 0.000000 0.000000 0.000000 33.976701 -41.893167 33.040193 0.000001 -0.000001 -0.000002 16.197095 -7.038823 3.616741 20.306617 -12.909525 -0.708278 0.000000 0.000000 0.000000 9.038809 -11.952688 -0.910510 -1.721142 -0.979166 0.840734 0.000000 0.000000 0.000000 9.038809 -11.952688 -0.910510 7.857628 -15.510578 0.857448 -39.549234 27.778296 -22.150838 0.460920 -12.644655 -2.316812 0.000000 0.000000 0.000000 9.038809 -11.952688 -0.910510 -0.079118 10.824653 21.607816 -24.893097 1.414282 30.835633 -50.605312 64.900075 49.137603 0.000000 0.000000 0.000000 
-14.474501 75.308670 8.220055 0.000000 0.000000 0.000000 27.985795 -41.874462 30.411520 -64.708679 25.183753 41.075293 44.878321 -26.110930 2.709283 -3.182501 9.014975 -23.705391 0.000000 0.000000 0.000000 27.985795 -41.874462 30.411520 -33.221583 4.780790 -36.570954 64.138167 3.476996 -7.034754 -46.802734 -13.390162 28.786847 0.000000 0.000000 0.000000 27.985795 -41.874462 30.411520 0.000001 -0.000001 0.000000 17.944695 -7.367956 3.601969 23.297533 -10.887593 -1.499081 0.000000 0.000000 0.000000 11.952280 -9.911139 -2.435661 -2.223065 -0.714688 -0.151144 0.000000 0.000000 0.000000 11.952280 -9.911139 -2.435661 7.726089 -16.727478 -0.837805 -45.095467 4.212430 -22.292669 3.286377 -13.461256 -0.509118 0.000000 0.000000 0.000000 11.952280 -9.911139 -2.435661 -0.023735 11.101608 20.238984 -20.403561 -1.917476 31.086284 -50.216230 63.400200 47.479715 0.000000 0.000000 0.000000 
-15.190940 75.130112 8.005512 0.000000 0.000000 0.000000 24.531215 -41.802103 29.229993 -61.647450 26.596571 40.176337 43.025844 -26.945687 2.521458 -2.168625 8.589199 -24.251311 0.000000 0.000000 0.000000 24.531215 -41.802103 29.229993 -30.821857 3.721237 -38.442221 66.051747 4.276613 -7.057579 -49.190698 -13.607890 27.959420 0.000000 0.000000 0.000000 24.531215 -41.802103 29.229993 0.000001 0.000002 0.000001 18.729974 -7.709894 3.332230 27.041673 -9.988336 -1.799543 0.000000 0.000000 0.000000 15.583126 -8.911981 -3.770875 -2.787796 0.184822 -0.162656 0.000000 0.000000 0.000000 15.583126 -8.911981 -3.770875 6.379611 -18.740048 1.186695 -45.361195 -10.884703 -28.073051 3.493917 -15.590387 -0.475375 0.000000 0.000000 0.000000 15.583126 -8.911981 -3.770875 -0.208169 12.255799 21.252014 -19.035136 -3.307527 29.671800 -49.092459 63.227328 45.211993 0.000000 0.000000 0.000000 
-15.473073 75.072067 7.651371 0.000000 0.000000 0.000000 23.341627 -42.709057 28.577955 -60.434231 26.818944 40.803871 42.682320 -27.373054 2.468633 -1.994818 8.855104 -24.685342 0.000000 0.000000 0.000000 23.341627 -42.709057 28.577955 -30.613898 3.631846 -38.614515 67.166714 4.992262 -7.056474 -49.902089 -13.039600 27.303529 0.000000 0.000000 0.000000 23.341627 -42.709057 28.577955 0.000002 0.000004 -0.000000 18.995072 -7.611022 3.226258 30.197014 -8.814369 -1.249312 0.000000 0.000000 0.000000 18.780095 -7.608272 -3.913833 -2.793320 1.092016 -0.185053 0.000000 0.000000 0.000000 18.780095 -7.608272 -3.913833 3.806177 -20.816183 2.574414 -43.566652 -23.379406 -34.385296 2.022626 -21.267080 -0.316732 0.000000 0.000000 0.000000 18.780095 -7.608272 -3.913833 -0.362048 12.668195 22.685077 -19.495991 -4.814922 26.067707 -50.939281 65.432017 46.330829 0.000000 0.000000 0.000000 
